<svg xmlns="http://www.w3.org/2000/svg" width="32.851" height="21.289" viewBox="0 0 32.851 21.289"><defs><style>.a,.b{fill:#645df9;}.a{fill-rule:evenodd;}</style></defs><g transform="translate(-822.306 -346.039)"><g transform="translate(822.306 346.039)"><g transform="translate(0 0)"><path class="a" d="M823.953,346.039h0a1.652,1.652,0,0,0-1.647,1.647v17.938a1.652,1.652,0,0,0,1.647,1.647h0a1.652,1.652,0,0,0,1.647-1.647V358.38a1.647,1.647,0,1,1,3.295,0h0v4.545a1.647,1.647,0,0,0,3.295,0v-9.58a2.355,2.355,0,0,1,1.229-.345c1.446,0,2.009,1.353,2.993,1.353a1.647,1.647,0,0,0,0-3.295c-1.089,0-1.764,1.353-2.993,1.353a2.356,2.356,0,0,1-1.229-.346v-2.437a1.647,1.647,0,1,0-3.295,0v4.545a1.647,1.647,0,0,1-3.295,0v-6.487a1.652,1.652,0,0,0-1.647-1.647" transform="translate(-822.306 -346.039)"/><path class="b" d="M888.827,392.022h0A1.677,1.677,0,0,1,890.5,393.7v7.078a1.677,1.677,0,0,1-1.677,1.677h0a1.677,1.677,0,0,1-1.677-1.677V393.7A1.677,1.677,0,0,1,888.827,392.022Z" transform="translate(-874.861 -383.307)"/><path class="b" d="M917.686,378.4c0-.975-.893-1.158-2.133-1.158a2.879,2.879,0,0,0-2.224,1.432v-.849a.866.866,0,0,0-.967-.594c-.474,0-.766.392-.766.939v9.99a.831.831,0,0,0,.911.882c.565,0,1.369-.335,1.369-.873v-6.3c0-1.686.53-3.027,2.122-3.027.531,0,.637.4.985.364a.737.737,0,0,0,.706-.766C917.689,378.43,917.688,378.415,917.686,378.4Z" transform="translate(-894.673 -371.311)"/><path class="b" d="M948.1,385.814c.022-.206,0-.483,0-.691a5.454,5.454,0,0,0-5.423-5.35h0A5.9,5.9,0,0,0,937,385.749a6,6,0,0,0,5.868,6.119,5.579,5.579,0,0,0,4.594-2.439,1.266,1.266,0,0,0,.2-.621,1.1,1.1,0,0,0-1.089-1.1,1.188,1.188,0,0,0-.9.49,3.558,3.558,0,0,1-2.831,1.513c-1.924.21-3.266-1.459-3.188-2.333.234-2.226,7.251-.682,7.251-.682A1.183,1.183,0,0,0,948.1,385.814Zm-7.916-1.465c-1.33-.789.772-2.861,2.535-2.843,1.7-.244,4.242,2.085,3.053,3.014C944.8,385.279,941.329,385.027,940.184,384.348Z" transform="translate(-915.26 -373.379)"/></g></g><g transform="translate(826.756 365.852)"><path class="b" d="M847.492,452.141h-.135l-.147-1.182-.507,1.035h-.126l-.511-1.039-.147,1.187h-.132l.176-1.426h.128l.549,1.132.549-1.132h.126Z" transform="translate(-845.786 -450.69)"/><path class="b" d="M856.127,451.324a.721.721,0,1,1,.721.735A.728.728,0,0,1,856.127,451.324Zm1.3,0a.584.584,0,1,0-.584.607A.6.6,0,0,0,857.432,451.324Z" transform="translate(-854.167 -450.583)"/><path class="b" d="M866.071,450.715a.718.718,0,0,1,0,1.426h-.541v-1.426Zm0,1.3c.325,0,.5-.253.5-.582s-.176-.588-.5-.588h-.4v1.17Z" transform="translate(-861.788 -450.69)"/><path class="b" d="M873.7,452.013h.7v.128h-.836v-1.426h.814v.128H873.7v.534h.592v.128H873.7Z" transform="translate(-868.302 -450.69)"/><path class="b" d="M880.308,451.585l.394.557h-.166l-.391-.559h-.238v.559h-.137v-1.426h.53a.436.436,0,0,1,.013.87Zm-.4-.741v.613h.36a.278.278,0,0,0,.308-.306.272.272,0,0,0-.273-.306Z" transform="translate(-873.329 -450.69)"/><path class="b" d="M887.456,450.715h.136v1.426h-.141l-.731-1.188v1.188h-.137v-1.426h.143l.729,1.186Z" transform="translate(-878.852 -450.69)"/><path class="b" d="M905.807,452.013h.7v.128h-.836v-1.426h.814v.128h-.679v.534h.592v.128h-.592Z" transform="translate(-894.323 -450.69)"/><path class="b" d="M911.926,452.141l-.143-.379h-.659l-.143.379h-.145l.544-1.426h.145l.543,1.426Zm-.754-.5h.563l-.281-.745Z" transform="translate(-898.509 -450.69)"/><path class="b" d="M918.012,451.655h.135a.324.324,0,0,0,.344.275.3.3,0,0,0,.34-.284c0-.155-.137-.23-.277-.265l-.192-.045c-.3-.071-.338-.242-.338-.356a.426.426,0,0,1,.454-.4.407.407,0,0,1,.441.387h-.135a.285.285,0,0,0-.311-.259.293.293,0,0,0-.313.269c0,.066.021.178.232.23l.195.05c.226.056.381.174.381.381a.439.439,0,0,1-.476.418A.452.452,0,0,1,918.012,451.655Z" transform="translate(-904.324 -450.583)"/><path class="b" d="M924.646,450.715h.164l-.544.758v.669h-.137v-.669l-.536-.758h.161l.445.625Z" transform="translate(-908.846 -450.69)"/><path class="b" d="M942.455,452.013h.7v.128h-.836v-1.426h.814v.128h-.679v.534h.592v.128h-.592Z" transform="translate(-924.025 -450.69)"/><path class="b" d="M949.326,450.843h-.667v.534h.528v.128h-.528v.636h-.137v-1.426h.8Z" transform="translate(-929.052 -450.69)"/><path class="b" d="M955.179,450.843h-.667v.534h.528v.128h-.528v.636h-.137v-1.426h.8Z" transform="translate(-933.796 -450.69)"/><path class="b" d="M960.229,452.141v-1.426h.137v1.426Z" transform="translate(-938.54 -450.69)"/><path class="b" d="M962.729,451.324a.73.73,0,0,1,.716-.741.684.684,0,0,1,.505.217l-.1.085a.568.568,0,0,0-.408-.174.61.61,0,0,0,0,1.219.564.564,0,0,0,.408-.174l.1.087a.689.689,0,0,1-.505.215A.725.725,0,0,1,962.729,451.324Z" transform="translate(-940.566 -450.583)"/><path class="b" d="M970.777,452.141v-1.426h.137v1.426Z" transform="translate(-947.089 -450.69)"/><path class="b" d="M973.958,452.013h.7v.128h-.837v-1.426h.814v.128h-.679v.534h.592v.128h-.592Z" transform="translate(-949.559 -450.69)"/><path class="b" d="M980.9,450.715h.137v1.426h-.141l-.731-1.188v1.188h-.137v-1.426h.143l.729,1.186Z" transform="translate(-954.585 -450.69)"/><path class="b" d="M987.832,450.715v.128h-.456v1.3h-.136v-1.3h-.453v-.128Z" transform="translate(-960.064 -450.69)"/></g><path class="a" d="M933.5,452.508a.528.528,0,0,1-.077-.275c0-.323.3-.449.3-.669a.368.368,0,1,0-.736,0c0,.243.3.394.3.669a.525.525,0,0,1-.077.275Z" transform="translate(-89.706 -85.228)"/><path class="a" d="M897.879,452.508a.526.526,0,0,1-.077-.275c0-.323.3-.449.3-.669a.368.368,0,0,0-.737,0c0,.243.3.394.3.669a.528.528,0,0,1-.077.275Z" transform="translate(-60.836 -85.228)"/></g></svg>