<svg xmlns="http://www.w3.org/2000/svg" width="93.833" height="24.481" viewBox="0 0 93.833 24.481"><defs><style>.a,.c{fill:#161615;}.a,.d,.f{fill-rule:evenodd;}.b,.f{fill:#2f9732;}.d,.e{fill:#fff;}</style></defs><g transform="translate(-338.569 -86.416)"><path class="a" d="M340.5,133.475v.846a3.629,3.629,0,0,1,1.132-.776,3.317,3.317,0,0,1,1.3-.259,3.369,3.369,0,0,1,2.561,1.136,4.123,4.123,0,0,1,1.054,2.919,4.013,4.013,0,0,1-1.091,2.87,3.427,3.427,0,0,1-2.582,1.156,3.226,3.226,0,0,1-1.238-.237,3.732,3.732,0,0,1-1.139-.776v3.639h-1.93V133.475Zm2.026,1.581a2.015,2.015,0,0,0-1.511.621,2.244,2.244,0,0,0-.6,1.627,2.3,2.3,0,0,0,.6,1.659,1.99,1.99,0,0,0,1.511.634,1.968,1.968,0,0,0,1.49-.643,2.3,2.3,0,0,0,.6-1.642,2.271,2.271,0,0,0-.595-1.622A1.96,1.96,0,0,0,342.525,135.056Z" transform="translate(0 -39.97)"/><path class="a" d="M396.419,113.086a1.183,1.183,0,0,1,.871.367,1.255,1.255,0,0,1,0,1.765,1.171,1.171,0,0,1-.863.363,1.184,1.184,0,0,1-.878-.37,1.229,1.229,0,0,1-.365-.9,1.23,1.23,0,0,1,1.231-1.226Zm-.97,3.163h1.929v7.7h-1.929Z" transform="translate(-48.283 -22.744)"/><path class="a" d="M550.209,116.141h2.017v3.932h3.482v-3.932h2v10.417h-2v-4.57h-3.482v4.57h-2.017Z" transform="translate(-180.48 -25.349)"/><path class="a" d="M612.372,133.475h1.93v7.7h-1.93v-.82a3.778,3.778,0,0,1-1.136.771,3.207,3.207,0,0,1-1.236.237,3.437,3.437,0,0,1-2.587-1.156,4.013,4.013,0,0,1-1.09-2.87,4.124,4.124,0,0,1,1.057-2.919,3.37,3.37,0,0,1,2.563-1.136,3.309,3.309,0,0,1,1.3.259,3.582,3.582,0,0,1,1.127.776v-.846Zm-2.034,1.581a1.952,1.952,0,0,0-1.492.634,2.271,2.271,0,0,0-.595,1.622,2.3,2.3,0,0,0,.6,1.642,1.967,1.967,0,0,0,1.489.643,1.99,1.99,0,0,0,1.511-.634,2.3,2.3,0,0,0,.6-1.659,2.244,2.244,0,0,0-.6-1.627A2.023,2.023,0,0,0,610.338,135.056Z" transform="translate(-228.332 -39.97)"/><path class="a" d="M668.5,133.475v.846a3.628,3.628,0,0,1,1.132-.776,3.317,3.317,0,0,1,1.3-.259,3.368,3.368,0,0,1,2.561,1.136,4.122,4.122,0,0,1,1.054,2.919,4.013,4.013,0,0,1-1.091,2.87,3.427,3.427,0,0,1-2.582,1.156,3.226,3.226,0,0,1-1.238-.237,3.731,3.731,0,0,1-1.139-.776v3.639h-1.93V133.475Zm2.026,1.581a2.015,2.015,0,0,0-1.511.621,2.244,2.244,0,0,0-.6,1.627,2.3,2.3,0,0,0,.6,1.659,1.99,1.99,0,0,0,1.511.634,1.968,1.968,0,0,0,1.49-.643,2.3,2.3,0,0,0,.6-1.642,2.271,2.271,0,0,0-.595-1.622A1.96,1.96,0,0,0,670.529,135.056Z" transform="translate(-279.712 -39.97)"/><path class="a" d="M726.39,133.475v.846a3.631,3.631,0,0,1,1.132-.776,3.318,3.318,0,0,1,1.3-.259,3.369,3.369,0,0,1,2.561,1.136,4.123,4.123,0,0,1,1.054,2.919,4.014,4.014,0,0,1-1.09,2.87,3.427,3.427,0,0,1-2.582,1.156,3.227,3.227,0,0,1-1.238-.237,3.731,3.731,0,0,1-1.139-.776v3.639h-1.93V133.475Zm2.026,1.581a2.015,2.015,0,0,0-1.511.621,2.244,2.244,0,0,0-.6,1.627,2.3,2.3,0,0,0,.6,1.659,1.99,1.99,0,0,0,1.511.634,1.967,1.967,0,0,0,1.49-.643,2.3,2.3,0,0,0,.6-1.642,2.272,2.272,0,0,0-.595-1.622A1.96,1.96,0,0,0,728.416,135.056Z" transform="translate(-329.076 -39.97)"/><path class="a" d="M780.424,113.086a1.183,1.183,0,0,1,.87.367,1.255,1.255,0,0,1,0,1.765,1.171,1.171,0,0,1-.863.363,1.184,1.184,0,0,1-.878-.37,1.23,1.23,0,0,1-.365-.9,1.23,1.23,0,0,1,1.231-1.226Zm-.97,3.163h1.93v7.7h-1.93Z" transform="translate(-375.751 -22.744)"/><path class="a" d="M798.8,133.475h1.93v.793a4.677,4.677,0,0,1,1.192-.766,2.915,2.915,0,0,1,1.093-.215,2.651,2.651,0,0,1,1.947.8,2.752,2.752,0,0,1,.672,2.009v5.085h-1.915V137.81a8.5,8.5,0,0,0-.123-1.828,1.257,1.257,0,0,0-.43-.689,1.215,1.215,0,0,0-.759-.237,1.428,1.428,0,0,0-1.008.392,2.1,2.1,0,0,0-.583,1.083,8.857,8.857,0,0,0-.085,1.562v3.085H798.8Z" transform="translate(-392.468 -39.97)"/><path class="a" d="M856.382,137.871h-6.2a2.1,2.1,0,0,0,.716,1.313,2.233,2.233,0,0,0,1.482.486,2.553,2.553,0,0,0,1.855-.762l1.62.766a3.86,3.86,0,0,1-1.453,1.279,4.548,4.548,0,0,1-2.012.413,3.968,3.968,0,0,1-2.943-1.141,3.883,3.883,0,0,1-1.136-2.856,4.01,4.01,0,0,1,1.136-2.921,3.81,3.81,0,0,1,2.848-1.163,3.969,3.969,0,0,1,2.957,1.158,4.179,4.179,0,0,1,1.139,3.061l-.007.365Zm-1.922-1.509a1.912,1.912,0,0,0-.755-1.028,2.227,2.227,0,0,0-1.311-.394,2.344,2.344,0,0,0-1.419.445,2.477,2.477,0,0,0-.708.977Z" transform="translate(-434.69 -39.97)"/><path class="a" d="M907.874,134.565l-1.195,1.2a2.008,2.008,0,0,0-1.32-.725.833.833,0,0,0-.508.138.411.411,0,0,0-.184.341.419.419,0,0,0,.116.285,2.213,2.213,0,0,0,.578.358l.706.353a4.166,4.166,0,0,1,1.535,1.12,2.332,2.332,0,0,1-.338,3.047,2.894,2.894,0,0,1-2.024.684,3.215,3.215,0,0,1-2.691-1.315l1.192-1.3a2.74,2.74,0,0,0,.8.641,1.777,1.777,0,0,0,.813.244.966.966,0,0,0,.617-.184.531.531,0,0,0,.234-.423q0-.446-.844-.868l-.65-.326q-1.872-.939-1.872-2.35a2.04,2.04,0,0,1,.7-1.557,2.557,2.557,0,0,1,1.8-.646,3.12,3.12,0,0,1,2.532,1.279Z" transform="translate(-480.945 -39.97)"/><path class="a" d="M944.064,134.565l-1.195,1.2a2.008,2.008,0,0,0-1.32-.725.833.833,0,0,0-.508.138.41.41,0,0,0-.184.341.42.42,0,0,0,.116.285,2.219,2.219,0,0,0,.578.358l.706.353a4.168,4.168,0,0,1,1.536,1.12,2.332,2.332,0,0,1-.339,3.047,2.894,2.894,0,0,1-2.024.684,3.215,3.215,0,0,1-2.691-1.315l1.192-1.3a2.736,2.736,0,0,0,.8.641,1.776,1.776,0,0,0,.812.244.966.966,0,0,0,.617-.184.531.531,0,0,0,.234-.423q0-.446-.844-.868l-.65-.326q-1.872-.939-1.872-2.35a2.039,2.039,0,0,1,.7-1.557,2.557,2.557,0,0,1,1.8-.646,3.12,3.12,0,0,1,2.532,1.279Z" transform="translate(-511.807 -39.97)"/><g transform="translate(348.956 86.416)"><circle class="b" cx="8.408" cy="8.408" r="8.408" transform="translate(0 3.863) rotate(-13.283)"/><g transform="translate(5.393 7.64)"><path class="a" d="M452.622,148.28a5.068,5.068,0,0,0,3-6.509q-.084-.228-.188-.444l-1.423.525a3.561,3.561,0,1,1-6.622,2.443l-1.423.525q.061.231.145.46A5.068,5.068,0,0,0,452.622,148.28Z" transform="translate(-445.936 -140.882)"/><path class="a" d="M446.771,159.93a.759.759,0,1,0-.975-.449A.759.759,0,0,0,446.771,159.93Z" transform="translate(-445.749 -155.491)"/><path class="a" d="M501.4,139.779a.759.759,0,1,0-.975-.449A.759.759,0,0,0,501.4,139.779Z" transform="translate(-492.334 -138.308)"/></g><circle class="c" cx="1.018" cy="1.018" r="1.018" transform="translate(11.957 5.507)"/><g transform="translate(5.209 7.562)"><path class="d" d="M451.374,147.746a5.068,5.068,0,0,0,3-6.509q-.084-.229-.188-.444l-1.423.525a3.561,3.561,0,1,1-6.622,2.443l-1.423.525q.061.231.145.459A5.068,5.068,0,0,0,451.374,147.746Z" transform="translate(-444.688 -140.349)"/><path class="d" d="M445.522,159.4a.759.759,0,1,0-.975-.45A.759.759,0,0,0,445.522,159.4Z" transform="translate(-444.5 -154.958)"/><path class="d" d="M500.151,139.246a.759.759,0,1,0-.975-.449A.759.759,0,0,0,500.151,139.246Z" transform="translate(-491.086 -137.774)"/></g><circle class="e" cx="1.018" cy="1.018" r="1.018" transform="translate(11.774 5.429)"/></g><path class="f" d="M666.544,226.793h.569v-1.327h1.147V225h-1.147v-.86h1.234v-.467h-1.8Z" transform="translate(-279.687 -117.052)"/><path class="f" d="M683.9,224.948h-1.174v-.8h1.244v-.467h-1.812v3.116h1.881v-.467h-1.313v-.915H683.9Z" transform="translate(-292.998 -117.052)"/><path class="f" d="M699.694,224.948H698.52v-.8h1.244v-.467h-1.812v3.116h1.882v-.467H698.52v-.915h1.174Z" transform="translate(-306.47 -117.052)"/><path class="f" d="M713.748,226.65a6.329,6.329,0,0,0,.767.042,2.081,2.081,0,0,0,1.41-.425,1.606,1.606,0,0,0,.485-1.239,1.389,1.389,0,0,0-.49-1.146,1.884,1.884,0,0,0-1.267-.361,6.405,6.405,0,0,0-.906.065v3.065Zm.569-2.654a1.859,1.859,0,0,1,.388-.032.99.99,0,0,1,1.1,1.082,1.071,1.071,0,0,1-1.179,1.2,2.119,2.119,0,0,1-.314-.014Z" transform="translate(-319.941 -116.918)"/><path class="f" d="M734.821,226.65a5.563,5.563,0,0,0,.7.042,1.768,1.768,0,0,0,1.16-.287.836.836,0,0,0,.3-.647.784.784,0,0,0-.629-.767v-.014a.719.719,0,0,0,.518-.67.659.659,0,0,0-.324-.587,1.5,1.5,0,0,0-.887-.2,4.7,4.7,0,0,0-.832.069v3.06Zm.564-2.686a1.551,1.551,0,0,1,.324-.023c.361,0,.583.134.583.43,0,.264-.217.448-.615.448h-.291v-.855Zm0,1.267h.282c.393,0,.712.148.712.513,0,.384-.328.518-.693.518a1.814,1.814,0,0,1-.3-.014Z" transform="translate(-337.912 -116.918)"/><path class="f" d="M752.709,225.91l.282.883h.615l-1.012-3.116h-.726l-1,3.116h.587l.268-.883Zm-.892-.43.24-.767c.051-.185.1-.4.148-.582h.009c.046.18.1.393.157.582l.245.767Z" transform="translate(-351.597 -117.052)"/><path class="f" d="M772.553,225.962a1.723,1.723,0,0,1-.619.111,1.018,1.018,0,0,1-1.086-1.123,1.038,1.038,0,0,1,1.091-1.146,1.529,1.529,0,0,1,.61.12l.12-.453a1.764,1.764,0,0,0-.753-.139,1.571,1.571,0,0,0-1.669,1.646,1.471,1.471,0,0,0,1.59,1.572,2.061,2.061,0,0,0,.809-.139Z" transform="translate(-368.121 -116.758)"/><path class="f" d="M789.466,226.793h.564v-1.1l.282-.333.878,1.428h.666L790.714,225l1.072-1.327h-.7l-.818,1.1c-.074.106-.153.217-.227.337h-.014v-1.433h-.564Z" transform="translate(-384.511 -117.052)"/><path class="f" d="M806.425,226.351a1.8,1.8,0,0,0,.846.2c.8,0,1.179-.434,1.179-.938,0-.448-.259-.721-.8-.925-.416-.162-.6-.273-.6-.513,0-.185.153-.374.513-.374a1.356,1.356,0,0,1,.624.148l.134-.453a1.558,1.558,0,0,0-.744-.162c-.68,0-1.1.384-1.1.9,0,.448.328.721.846.906.393.143.55.282.55.518,0,.254-.2.425-.564.425a1.559,1.559,0,0,1-.754-.2Z" transform="translate(-398.973 -116.758)"/><path class="f" d="M856.231,226.351a1.8,1.8,0,0,0,.846.2c.8,0,1.179-.434,1.179-.938,0-.448-.259-.721-.8-.925-.416-.162-.6-.273-.6-.513,0-.185.152-.374.513-.374a1.356,1.356,0,0,1,.624.148l.134-.453a1.558,1.558,0,0,0-.744-.162c-.68,0-1.1.384-1.1.9,0,.448.328.721.846.906.393.143.55.282.55.518,0,.254-.2.425-.564.425a1.559,1.559,0,0,1-.754-.2Z" transform="translate(-441.446 -116.758)"/><path class="f" d="M873.065,223.677v1.784c0,.98.467,1.382,1.188,1.382.749,0,1.244-.425,1.244-1.387v-1.78h-.569v1.817c0,.61-.245.892-.656.892-.384,0-.638-.282-.638-.892v-1.817Z" transform="translate(-455.802 -117.052)"/><path class="f" d="M893.635,226.659h.564v-1.281h.287c.324.009.467.139.559.546a3.969,3.969,0,0,0,.208.735h.582a7.932,7.932,0,0,1-.245-.869.773.773,0,0,0-.435-.6v-.014a.818.818,0,0,0,.569-.777.792.792,0,0,0-.268-.629,1.452,1.452,0,0,0-.962-.25,4.878,4.878,0,0,0-.86.069v3.07Zm.564-2.681a1.626,1.626,0,0,1,.351-.028c.37,0,.606.162.606.5,0,.31-.236.513-.62.513H894.2Z" transform="translate(-473.344 -116.918)"/><path class="f" d="M910.9,226.793l1.077-3.116h-.606l-.453,1.424c-.12.379-.236.758-.319,1.128h-.009c-.079-.379-.185-.74-.305-1.133l-.425-1.419h-.62l1.008,3.116Z" transform="translate(-486.653 -117.052)"/><path class="f" d="M931.494,224.948H930.32v-.8h1.244v-.467h-1.812v3.116h1.881v-.467H930.32v-.915h1.174Z" transform="translate(-504.142 -117.052)"/><path class="f" d="M945.217,226.793V225.48l1.036-1.8h-.643l-.374.8c-.106.226-.194.421-.268.619h-.009c-.088-.213-.166-.388-.273-.619l-.37-.8h-.652l.985,1.817v1.3Z" transform="translate(-516.007 -117.052)"/><path class="f" d="M961.6,226.351a1.8,1.8,0,0,0,.846.2c.8,0,1.179-.434,1.179-.938,0-.448-.259-.721-.8-.925-.416-.162-.6-.273-.6-.513,0-.185.153-.374.513-.374a1.356,1.356,0,0,1,.624.148l.134-.453a1.558,1.558,0,0,0-.744-.162c-.68,0-1.1.384-1.1.9,0,.448.328.721.846.906.393.143.55.282.55.518,0,.254-.2.425-.564.425a1.558,1.558,0,0,1-.753-.2Z" transform="translate(-531.299 -116.758)"/><rect class="c" width="0.411" height="4.623" transform="translate(411.923 106.273)"/></g></svg>