<svg xmlns="http://www.w3.org/2000/svg" width="75.03" height="24.595" viewBox="0 0 75.03 24.595"><defs><style>.a,.e{fill:#454a96;}.b{fill:#fff;}.c,.d{fill:#161615;font-family:Poppins-Bold, Poppins;font-weight:700;}.c{font-size:15px;}.d{font-size:17px;}.e{font-size:4px;font-family:SegoeUI, Segoe UI;letter-spacing:-0.009em;}</style></defs><g transform="translate(-320.365 -356.491)"><g transform="translate(336.951 358.38)"><circle class="a" cx="9.974" cy="9.974" r="9.974" transform="translate(0 0)"/><g transform="translate(3.441 4.847)"><path class="b" d="M563.947,475.9v-.733h.272v-.285h-2.041v.285h.248v1.65h-.3v.285h.89v-.285h-.3v-1.65h.951v1.65h-.285v.285h.89v-.285h-.32Z" transform="translate(-553.722 -467.693)"/><path class="b" d="M503.741,420h-1.234v-2.029a.975.975,0,0,0-.974-.974h-1.212a1.62,1.62,0,1,0-.455,0h-1.2a.975.975,0,0,0-.974.974V420h-1.029v-2.029a.975.975,0,0,0-.974-.974h-1.094a1.62,1.62,0,1,0-.455,0h-.968a.975.975,0,0,0-.974.974V420h-1.522v.285h.14v3.769H503.56v-3.769h.181Zm-4.981-4.6a1.335,1.335,0,1,1,1.335,1.335A1.336,1.336,0,0,1,498.76,415.393Zm-5.728,0a1.335,1.335,0,1,1,1.335,1.335A1.336,1.336,0,0,1,493.031,415.393Zm4.944,2.575a.689.689,0,0,1,.689-.689h2.869a.689.689,0,0,1,.689.689V420h-.79v-1.1h-.285V420h-2.052v-1.1h-.285V420h-.833Zm-5.495,0a.689.689,0,0,1,.689-.689h2.518a.689.689,0,0,1,.689.689V420h-.312v-1.73h-3.3V420h-.281Zm3.895,3.178a.665.665,0,0,1-.008.1c0,.01,0,.02-.006.03a.646.646,0,0,1-.018.069c0,.01-.006.021-.01.031a.681.681,0,0,1-.031.072l-.009.019a.69.69,0,0,1-.053.083l-.016.02a.68.68,0,0,1-.049.056l-.024.023a.673.673,0,0,1-.055.046l-.023.018-.01.006v-1.437h.312Zm-.6-1.149h-2.732v-1.445h2.732Zm-3.017,1.7h0l-.009-.008a.687.687,0,0,1-.063-.055l-.021-.022c-.016-.017-.031-.035-.045-.053l-.017-.022a.7.7,0,0,1-.049-.081l0-.006a.7.7,0,0,1-.034-.082c0-.009-.006-.018-.008-.028a.663.663,0,0,1-.017-.069c0-.01,0-.019-.005-.028a.669.669,0,0,1-.008-.1v-.863h.281Zm-1.359,2.067h-.3v-3.484h.3Zm1.359,0h-1.074v-3.484h.508v.863a.981.981,0,0,0,.01.132s0,.009,0,.013a.961.961,0,0,0,.027.121l.005.018a.981.981,0,0,0,.042.112l.008.018a.988.988,0,0,0,.057.1l.01.015a.972.972,0,0,0,.073.1l.008.009a.974.974,0,0,0,.194.17l.01.007a.966.966,0,0,0,.109.06l.01.005Zm3.017,0h-2.732v-3.484h2.732v3.484Zm6.761,0h-6.476v-1.723l.026-.013.029-.013.04-.022.026-.015.041-.027.022-.014c.018-.013.035-.026.052-.04l.007-.006c.019-.016.038-.033.055-.05l.015-.015.036-.038.018-.021.029-.036.018-.024.025-.036.016-.026.022-.037.015-.028.018-.039.013-.029.016-.04.01-.03c0-.014.009-.028.012-.042l.008-.03c0-.015.006-.03.009-.045s0-.019.005-.029,0-.034.006-.05,0-.016,0-.025c0-.025,0-.051,0-.077v-.863h5.879Zm.735,0h-.45v-3.484h.45Z" transform="translate(-490.674 -413.773)"/></g></g><text class="c" transform="translate(320.365 373.842)"><tspan x="0" y="0">pi</tspan></text><text class="d" transform="translate(357.394 374.491)"><tspan x="0" y="0">LOBI</tspan></text><text class="e" transform="translate(358.582 380.086)"><tspan x="0" y="0">DIGITAL RECEPTION</tspan></text></g></svg>